<svg xmlns="http://www.w3.org/2000/svg" version="1.1" xmlns:xlink="http://www.w3.org/1999/xlink"
  xmlns:svgjs="http://svgjs.dev/svgjs"width="308.7612359841165" height="1500" viewBox="0 0 1500 1500">
  <rectwidth="308.7612359841165" height="1500" fill="#000000"></rectwidth=>
  <g transform="matrix(0.6666666666666666,0,0,0.6666666666666666,249.50000000000006,249.50000000000006)"><svg
      viewBox="0 0 280 280" data-background-color="#000000" preserveAspectRatio="xMidYMid meet" height="1500"
     width="308.7612359841165" xmlns="http://www.w3.org/2000/svg" xmlns:xlink="http://www.w3.org/1999/xlink">
      <g id="tight-bounds" transform="matrix(1,0,0,1,0.13999999999998636,0.13999999999998636)"><svg
          viewBox="0 0 279.72 279.72" height="279.72" width="279.72">
          <g><svg viewBox="0 0 279.72 279.72" height="279.72" width="279.72">
              <g><svg viewBox="0 0 279.72 279.72" height="279.72" width="279.72">
                  <g id="textblocktransform"><svg viewBox="0 0 279.72 279.72" height="279.72" width="279.72"
                      id="textblock">
                      <g><svg viewBox="0 0 279.72 279.72" height="279.72" width="279.72">
                          <g transform="matrix(1,0,0,1,57.446704652707865,57.446704652707865)"><svg
                              viewBox="0 0 164.8265906945843 164.8265906945843" height="164.8265906945843"
                              width="164.8265906945843">
                              <g id="icon-0"><svg xmlns="http://www.w3.org/2000/svg"
                                  xmlns:xlink="http://www.w3.org/1999/xlink" version="1.1" x="24.72398860418764"
                                  y="24.723988604187646" viewBox="13.344999999999999 13.345 73.31 73.31"
                                  style="enable-background:new 0 0 100 100;" xml:space="preserve"
                                  height="115.378613486209" width="115.378613486209" class="icon-xg-0"
                                  data-fill-palette-color="quaternary" id="xg-0">
                                  <path
                                    d="M50 13.345c-20.244 0-36.655 16.415-36.655 36.655 0 20.246 16.412 36.655 36.655 36.655 20.243 0 36.655-16.409 36.655-36.655C86.655 29.759 70.243 13.345 50 13.345zM36.801 30.74c3.74 0 6.784 3.041 6.784 6.781 0 3.74-3.044 6.781-6.784 6.781-3.737 0-6.779-3.042-6.779-6.781C30.022 33.781 33.064 30.74 36.801 30.74zM50 71.061c-9.508 0-17.391-7.008-18.809-16.125l37.62-0.004C67.394 64.053 59.51 71.061 50 71.061zM63.193 44.302c-3.737 0-6.778-3.042-6.778-6.781 0-3.74 3.041-6.781 6.778-6.781 3.74 0 6.784 3.041 6.784 6.781C69.977 41.261 66.933 44.302 63.193 44.302z"
                                    fill="#000000" data-fill-palette-color="quaternary"></path>
                                </svg></g>
                            </svg></g>
                          <g id="text-0"></g>
                          <g id="text-1"></g>
                        </svg></g>
                    </svg></g>
                </svg></g>
            </svg></g>
          <defs></defs>
          <mask id="4c71d21b-1c37-4a9f-8473-5188e926b2c3">
            <g id="SvgjsG1542"><svg viewBox="0 0 279.72 279.72" height="279.72" width="279.72">
                <g><svg viewBox="0 0 279.72 279.72" height="279.72" width="279.72">
                    <g><svg viewBox="0 0 279.72 279.72" height="279.72" width="279.72">
                        <g id="SvgjsG1541"><svg viewBox="0 0 279.72 279.72" height="279.72" width="279.72"
                            id="SvgjsSvg1540">
                            <g><svg viewBox="0 0 279.72 279.72" height="279.72" width="279.72">
                                <g transform="matrix(1,0,0,1,57.446704652707865,57.446704652707865)"><svg
                                    viewBox="0 0 164.8265906945843 164.8265906945843" height="164.8265906945843"
                                    width="164.8265906945843">
                                    <g id="SvgjsG1539">
                                      <circle r="82" cx="82.41329534729215" cy="82.41329534729215" fill="black">
                                      </circle><svg xmlns="http://www.w3.org/2000/svg"
                                        xmlns:xlink="http://www.w3.org/1999/xlink" version="1.1" x="24.72398860418764"
                                        y="24.723988604187646" viewBox="13.344999999999999 13.345 73.31 73.31"
                                        style="enable-background:new 0 0 100 100;" xml:space="preserve"
                                        height="115.378613486209" width="115.378613486209" class="icon-xg-0"
                                        data-fill-palette-color="quaternary" id="SvgjsSvg1538">
                                        <path
                                          d="M50 13.345c-20.244 0-36.655 16.415-36.655 36.655 0 20.246 16.412 36.655 36.655 36.655 20.243 0 36.655-16.409 36.655-36.655C86.655 29.759 70.243 13.345 50 13.345zM36.801 30.74c3.74 0 6.784 3.041 6.784 6.781 0 3.74-3.044 6.781-6.784 6.781-3.737 0-6.779-3.042-6.779-6.781C30.022 33.781 33.064 30.74 36.801 30.74zM50 71.061c-9.508 0-17.391-7.008-18.809-16.125l37.62-0.004C67.394 64.053 59.51 71.061 50 71.061zM63.193 44.302c-3.737 0-6.778-3.042-6.778-6.781 0-3.74 3.041-6.781 6.778-6.781 3.74 0 6.784 3.041 6.784 6.781C69.977 41.261 66.933 44.302 63.193 44.302z"
                                          fill="black"></path>
                                      </svg>
                                    </g>
                                  </svg></g>
                                <g id="SvgjsG1537">
                                  <path
                                    d="M13.476 87.645c-0.448-0.025-0.986 0.326-1.613 1.052-0.627 0.726-1.191 1.768-1.691 3.125v0c-0.546 1.481-0.556 2.786-0.03 3.917 0.524 1.137 1.415 1.937 2.672 2.401v0c0.774 0.286 1.473 0.223 2.097-0.188 0.623-0.411 1.404-1.115 2.342-2.113v0l1.068-1.148 0.944-0.929c1.102-1.135 2.043-2.009 2.826-2.622 0.782-0.613 1.702-1.037 2.761-1.273 1.058-0.236 2.254-0.108 3.586 0.383v0c1.431 0.528 2.494 1.455 3.187 2.781 0.693 1.326 0.999 2.931 0.916 4.815-0.074 1.88-0.524 3.939-1.349 6.176v0c-0.613 1.661-1.445 3.117-2.498 4.368-1.047 1.254-2.113 2.159-3.199 2.716-1.092 0.555-2.015 0.693-2.771 0.414v0c-0.725-0.267-1.203-0.803-1.435-1.606-0.234-0.797-0.227-1.808 0.021-3.034v0c0.777 0.146 1.587-0.037 2.431-0.549 0.846-0.519 1.618-1.198 2.315-2.039 0.697-0.841 1.181-1.627 1.45-2.358v0c0.491-1.332 0.666-2.616 0.524-3.852-0.143-1.235-0.679-2.024-1.608-2.367v0c-0.781-0.288-1.564-0.158-2.351 0.39-0.789 0.554-1.76 1.459-2.913 2.716v0l-1.639 1.665c-1.409 1.339-2.791 2.3-4.147 2.884-1.356 0.584-2.861 0.571-4.515-0.04v0c-1.834-0.677-3.134-1.741-3.901-3.192-0.758-1.455-1.118-3.01-1.078-4.663 0.04-1.654 0.319-3.184 0.838-4.59v0c0.825-2.237 1.792-3.971 2.901-5.202 1.109-1.231 2.223-2.01 3.343-2.335 1.122-0.332 2.148-0.327 3.078 0.016v0c0.527 0.194 1.119 0.564 1.776 1.109 0.654 0.537 1.161 1.164 1.523 1.882 0.366 0.726 0.415 1.452 0.147 2.176v0c-0.464 1.258-1.35 1.646-2.657 1.164v0c-0.384-0.198-1.002-0.556-1.852-1.075-0.853-0.512-1.353-0.837-1.499-0.975z"
                                    fill="white"></path>
                                  <path
                                    d="M66.686 49.097c0.498 0.495 0.981 0.911 1.448 1.249v0c0.064 0.154-0.01 0.428-0.221 0.82-0.207 0.397-0.42 0.691-0.64 0.881v0c-0.729 0.631-1.344 0.975-1.844 1.033-0.496 0.062-0.93-0.121-1.302-0.551v0c-0.35-0.405-0.66-0.844-0.93-1.317v0c0.083 0.994-0.135 2.06-0.652 3.197-0.518 1.138-1.041 1.936-1.571 2.394v0c-1.358 1.175-2.828 1.757-4.41 1.746-1.582-0.011-3.127-0.888-4.635-2.631v0c-1.417-1.638-2.363-3.518-2.837-5.641-0.474-2.122-0.402-4.219 0.216-6.291 0.609-2.072 1.754-3.837 3.437-5.293v0c0.325-0.281 0.825-0.561 1.501-0.839 0.671-0.284 1.456-0.452 2.354-0.505 0.897-0.043 1.807 0.1 2.729 0.429v0c0.165-0.143 0.428-0.227 0.79-0.252 0.363-0.035 0.616 0.03 0.759 0.196v0c0.156 0.18 0.283 0.388 0.383 0.624v0zM57.958 41.781c-0.504-0.341-1.066-0.51-1.684-0.508-0.618 0.002-1.07 0.126-1.354 0.373v0c-0.929 0.804-1.518 1.89-1.767 3.257-0.254 1.372-0.213 2.761 0.121 4.166 0.338 1.41 0.883 2.55 1.635 3.419v0c0.739 0.854 1.444 1.467 2.115 1.839 0.676 0.367 1.306 0.298 1.89-0.208v0c0.509-0.441 0.962-1.094 1.356-1.96 0.396-0.875 0.628-1.797 0.699-2.766 0.069-0.959-0.06-1.791-0.389-2.493v0z"
                                    fill="white"></path>
                                  <path
                                    d="M119.023 10.363c0.137 0.132 0.337 0.396 0.6 0.791 0.269 0.394 0.429 0.707 0.48 0.939v0c0.03 0.135 0.035 0.219 0.015 0.25v0c-0.095 0.183-0.366 0.378-0.815 0.585-0.447 0.213-0.748 0.351-0.903 0.412v0c-0.691 0.7-1.796 1.812-3.313 3.336-1.517 1.524-2.622 2.636-3.313 3.336v0c0.191 0.621 0.873 1.478 2.047 2.572 1.169 1.102 2.393 2.114 3.671 3.037 1.273 0.93 2.013 1.373 2.219 1.327v0c0.239-0.053 0.575 0.08 1.01 0.396 0.44 0.309 0.695 0.621 0.764 0.938v0c0.064 0.29-0.079 0.515-0.43 0.673v0c-0.221 0.103-0.64 0.29-1.256 0.56-0.61 0.27-1.151 0.456-1.621 0.56v0c-0.419 0.092-0.756 0.112-1.012 0.06v0c-0.645-0.074-1.618-0.594-2.919-1.559-1.293-0.96-2.573-2.074-3.84-3.344-1.267-1.27-2.16-2.409-2.679-3.417v0c-0.096 3.558-0.179 5.993-0.248 7.307-0.061 1.319-0.157 2.188-0.288 2.61-0.123 0.426-0.329 0.671-0.619 0.735v0l-1.085 0.279c-1.729 0.38-2.784-0.114-3.167-1.484v0c0.241-1.392 0.376-2.531 0.405-3.416v0c0.474-10.167 0.724-17.802 0.75-22.907v0c-0.112-0.388-0.257-0.924-0.435-1.608-0.178-0.684-0.31-1.223-0.396-1.617v0c0.002-0.359 0.235-0.698 0.699-1.016 0.463-0.325 0.904-0.534 1.323-0.626v0c0.651-0.143 1.394-0.073 2.227 0.21 0.827 0.285 1.322 0.737 1.485 1.357v0l-0.47 14.456-0.071 2.856c0.398-0.804 1.148-1.849 2.252-3.133 1.097-1.283 2.26-2.469 3.488-3.557 1.226-1.095 2.242-1.812 3.046-2.151v0c0.206-0.045 0.604-0.065 1.194-0.06 0.596 0.004 0.998 0.108 1.205 0.313z"
                                    fill="white"></path>
                                  <path
                                    d="M166.216 31.852c-2.528-0.696-4.236-1.708-5.124-3.034-0.882-1.325-1.091-2.828-0.629-4.51v0c0.675-2.451 1.911-4.553 3.709-6.304 1.804-1.75 3.9-2.957 6.289-3.622 2.389-0.664 4.77-0.669 7.146-0.015v0c1.445 0.398 2.546 1.14 3.302 2.224 0.762 1.087 0.927 2.416 0.494 3.99v0c-0.249 0.904-0.746 1.565-1.492 1.983-0.739 0.42-1.712 0.707-2.918 0.861-1.207 0.154-3.137 0.311-5.792 0.47v0c-2.397 0.121-4.347 0.238-5.85 0.352v0c-0.207 0.354-0.368 0.738-0.482 1.151v0c-0.2 0.726-0.051 1.366 0.447 1.922 0.5 0.549 1.307 0.976 2.421 1.283v0c0.694 0.191 1.532 0.271 2.513 0.24 0.983-0.038 1.65-0.244 2-0.621v0c1.319-1.356 2.341-1.934 3.067-1.734v0c1.057 0.291 1.718 0.689 1.983 1.193 0.265 0.505 0.343 1.006 0.234 1.503v0c-0.538 0.735-1.375 1.399-2.511 1.99-1.136 0.591-2.475 0.966-4.019 1.123-1.543 0.157-3.14 0.009-4.788-0.445zM167.42 20.984c2.781-0.125 5.094-0.316 6.94-0.575 1.85-0.251 2.872-0.727 3.065-1.427v0c0.084-0.306-0.015-0.604-0.299-0.894-0.285-0.284-0.618-0.479-1-0.584v0c-0.777-0.214-1.743-0.162-2.9 0.157-1.158 0.325-2.28 0.793-3.366 1.405-1.088 0.618-1.901 1.257-2.44 1.918z"
                                    fill="white"></path>
                                  <path
                                    d="M225.78 47.622l-8.711 5.743c-0.416 0.452-0.627 0.921-0.635 1.408-0.012 0.482 0.198 0.922 0.63 1.32v0c0.593 0.545 1.24 0.822 1.942 0.83 0.701 0.008 1.559-0.105 2.573-0.34v0c0.732-0.162 1.289-0.25 1.671-0.266 0.373-0.016 0.689 0.095 0.946 0.331v0c0.51 0.469 0.817 0.868 0.92 1.196 0.098 0.332-0.034 0.696-0.396 1.089v0c-0.161 0.175-0.375 0.369-0.642 0.581-0.267 0.203-0.486 0.338-0.656 0.406v0c-1.397 0.573-2.968 0.73-4.712 0.471-1.745-0.259-3.298-1.014-4.659-2.265v0c-1.356-1.247-2.076-2.519-2.159-3.814-0.082-1.296 0.437-2.554 1.559-3.774v0c0.165-0.18 0.68-0.564 1.543-1.152 0.868-0.583 1.921-1.27 3.16-2.061v0l3.922-2.611-1.936-1.51c-0.238-0.219-0.335-0.47-0.291-0.752 0.049-0.287 0.189-0.557 0.422-0.81v0c0.456-0.496 1.085-0.828 1.886-0.998v0c0.097-0.018 0.35 0.107 0.759 0.375 0.413 0.263 0.902 0.6 1.466 1.011v0l0.875 0.643 4.975-3.392c0.669-0.327 1.337-0.449 2.004-0.365 0.667 0.084 1.178 0.289 1.534 0.616v0c0.394 0.362 0.62 0.79 0.677 1.283 0.058 0.493-0.046 0.904-0.312 1.233v0l-5.142 3.455c0.858 0.609 1.648 1.183 2.372 1.723 0.719 0.535 1.266 0.975 1.64 1.319v0c0.749 0.688 0.725 1.465-0.07 2.331v0c-0.308 0.335-0.727 0.507-1.254 0.515-0.533 0.004-0.994-0.12-1.383-0.369v0z"
                                    fill="white"></path>
                                  <path
                                    d="M256.336 95.478c1.341 0.177 2.599 0.631 3.773 1.36 1.174 0.729 2.166 1.544 2.974 2.446 0.809 0.902 1.336 1.695 1.582 2.379v0c0.472 1.311 0.563 2.345 0.273 3.102-0.283 0.754-0.953 1.322-2.009 1.702v0c-4.412-0.091-8.948 0.431-13.607 1.566v0l-1.654 1.195c-0.694-0.094-1.299-0.333-1.816-0.716-0.523-0.38-0.97-1.087-1.34-2.118v0c-0.219-0.609-0.176-1.123 0.13-1.542 0.303-0.425 0.756-0.746 1.359-0.962v0c1.69-0.608 3.637-1.03 5.839-1.268 2.203-0.238 4.482-0.408 6.838-0.512v0c0.891-0.04 1.352-0.065 1.383-0.076v0c0.348-0.125 0.449-0.39 0.305-0.793v0c-0.19-0.528-0.854-1.156-1.994-1.884-1.145-0.725-2.838-1.296-5.078-1.711-2.243-0.422-4.993-0.457-8.25-0.107v0c-0.139 0.022-0.429 0.056-0.869 0.101-0.436 0.037-0.806-0.086-1.112-0.368-0.301-0.292-0.584-0.804-0.847-1.538v0c-0.317-0.882-0.469-1.597-0.455-2.142 0.021-0.548 0.307-0.921 0.861-1.12v0c14.163-1.366 23.01-2.242 26.542-2.627v0c0.314-0.141 0.739-0.315 1.275-0.522 0.542-0.209 0.963-0.367 1.261-0.475v0c0.381-0.053 0.749 0.12 1.103 0.52 0.36 0.397 0.626 0.835 0.799 1.313v0c0.29 0.808 0.321 1.565 0.09 2.273-0.23 0.707-0.662 1.203-1.297 1.487v0z"
                                    fill="white"></path>
                                  <path
                                    d="M9.306 142.195c0-1.97 1.597-3.567 3.567-3.567 1.97 0 3.567 1.597 3.567 3.567 0 1.97-1.597 3.567-3.567 3.567-1.97 0-3.567-1.597-3.567-3.567z"
                                    fill="white"></path>
                                  <path
                                    d="M258.699 142.195c0-1.97 1.597-3.567 3.567-3.567 1.97 0 3.567 1.597 3.567 3.567 0 1.97-1.597 3.567-3.567 3.567-1.97 0-3.567-1.597-3.567-3.567z"
                                    fill="white"></path>
                                </g>
                                <g id="SvgjsG1536">
                                  <path
                                    d="M20.969 189.614c-3.463 0.235-6.365-0.067-8.703-0.906-2.333-0.842-3.808-2.046-4.425-3.614v0c-1.103-2.802 0.865-5.195 5.904-7.179v0c2.095-0.825 4.253-1.376 6.471-1.653 2.221-0.271 4.186-0.374 5.894-0.308v0c1.372 0.042 2.312 0.708 2.82 1.998v0c0.573 1.456 0.218 2.437-1.066 2.943v0c-0.141 0.056-0.755 0.102-1.841 0.139v0c-4.682 0.097-8.113 0.575-10.294 1.434v0c-1.039 0.409-1.85 0.835-2.435 1.278-0.587 0.437-0.798 0.868-0.631 1.292v0c0.298 0.756 1.491 1.262 3.579 1.519 2.091 0.263 4.491 0.319 7.199 0.168 2.705-0.142 5.021-0.398 6.949-0.767v0c0.384-0.087 0.812 0.06 1.281 0.443 0.474 0.374 0.783 0.746 0.929 1.115v0c0.285 0.725 0.326 1.305 0.121 1.741-0.199 0.433-0.648 0.787-1.349 1.063v0c-0.135 0.053-0.601 0.141-1.398 0.263v0c-2.401 0.463-4.427 0.88-6.075 1.253-1.649 0.372-3.143 0.822-4.483 1.349v0c-0.897 0.353-1.573 0.79-2.029 1.31-0.462 0.522-0.604 1.008-0.427 1.457v0c0.506 1.284 2.568 1.835 6.186 1.652 3.615-0.174 7.401-0.653 11.358-1.437v0c0.769-0.175 1.373 0.297 1.814 1.415v0c0.244 0.621 0.377 1.264 0.398 1.93 0.023 0.672-0.086 1.07-0.329 1.194v0l-2.32 0.381c-3.976 0.664-7.22 1.086-9.732 1.266-2.519 0.183-4.893-0.097-7.122-0.837-2.227-0.734-3.782-2.223-4.665-4.466v0c-0.98-2.489 0.518-4.516 4.494-6.081v0c1.229-0.484 2.561-0.877 3.996-1.18v0z"
                                    fill="white"></path>
                                  <path
                                    d="M25.58 221.353c-1.718-2.393-2.494-4.482-2.329-6.267 0.165-1.785 1.042-3.248 2.63-4.388v0c2.318-1.664 4.882-2.627 7.694-2.89 2.812-0.263 5.494 0.161 8.047 1.271 2.553 1.11 4.637 2.789 6.25 5.037v0c0.982 1.368 1.423 2.791 1.322 4.27-0.101 1.479-0.897 2.754-2.388 3.825v0c-0.858 0.616-1.758 0.847-2.698 0.693-0.949-0.156-2.004-0.594-3.163-1.315-1.165-0.717-2.963-1.942-5.395-3.675v0c-2.172-1.587-3.955-2.859-5.35-3.817v0c-0.438 0.16-0.853 0.381-1.245 0.662v0c-0.681 0.489-1.001 1.154-0.959 1.993 0.047 0.836 0.448 1.78 1.204 2.831v0c0.474 0.66 1.151 1.32 2.031 1.981 0.884 0.666 1.615 0.958 2.192 0.877v0c2.11-0.255 3.409-0.041 3.898 0.64v0c0.72 1.003 1.017 1.819 0.891 2.447-0.121 0.624-0.408 1.114-0.859 1.47v0c-0.986 0.269-2.184 0.259-3.595-0.029-1.406-0.283-2.841-0.899-4.303-1.85-1.463-0.95-2.754-2.205-3.875-3.766zM34.305 212.698c2.52 1.857 4.676 3.325 6.468 4.405 1.795 1.085 3.023 1.391 3.683 0.917v0c0.295-0.212 0.42-0.542 0.375-0.989-0.049-0.453-0.204-0.862-0.466-1.226v0c-0.528-0.735-1.408-1.372-2.639-1.91-1.237-0.534-2.549-0.918-3.936-1.15-1.388-0.223-2.549-0.239-3.485-0.047z"
                                    fill="white"></path>
                                  <path
                                    d="M44.717 239.161c-0.409 0.194-0.758 0.384-1.046 0.57v0c-0.662 0.34-1.177 0.559-1.545 0.657-0.368 0.098-0.721-0.002-1.058-0.299v0l-0.969-0.803c-0.564-0.498-0.912-1.017-1.044-1.557-0.131-0.53 0.1-1.176 0.695-1.938v0c0.047-0.003 0.386-0.157 1.017-0.463 0.627-0.301 1.412-0.78 2.353-1.437v0c1.242-0.868 2.478-1.723 3.708-2.566 1.22-0.843 2.405-1.66 3.554-2.452v0c1.513-1.034 3.765-2.586 6.758-4.657 2.993-2.071 5.356-3.724 7.09-4.959v0c0.273-0.358 0.663-0.846 1.173-1.462 0.504-0.621 0.905-1.099 1.203-1.436v0c0.327-0.231 0.792-0.243 1.394-0.037 0.593 0.207 1.07 0.469 1.431 0.788v0c0.564 0.498 0.982 1.207 1.255 2.126 0.268 0.924 0.176 1.666-0.276 2.228v0l-11.381 7.765c1.225-0.16 2.396 0.001 3.511 0.484 1.12 0.487 2.052 1.059 2.795 1.715v0c1.059 0.936 1.743 2.082 2.051 3.439 0.304 1.352 0.256 2.742-0.142 4.17-0.403 1.433-1.091 2.702-2.066 3.806v0c-1.434 1.623-3.228 2.881-5.381 3.772-2.144 0.891-4.392 1.191-6.745 0.901-2.348-0.294-4.505-1.31-6.47-3.045v0c-0.559-0.494-1.073-1.309-1.541-2.445-0.463-1.132-0.571-2.086-0.324-2.865zM48.005 237.07c-0.158 0.777-0.124 1.627 0.102 2.548 0.226 0.922 0.576 1.593 1.05 2.013v0c1.059 0.936 2.442 1.325 4.15 1.167 1.702-0.162 3.386-0.661 5.052-1.498 1.661-0.833 2.95-1.769 3.869-2.808v0c0.638-0.723 0.972-1.49 1.001-2.301 0.039-0.812-0.313-1.546-1.056-2.202v0c-0.658-0.582-1.488-1.054-2.488-1.418-1.005-0.359-2.037-0.517-3.096-0.475-1.064 0.047-2.014 0.34-2.851 0.878v0z"
                                    fill="white"></path>
                                  <path
                                    d="M108.76 241.286c0.274-0.383 0.736-0.603 1.386-0.658 0.65-0.056 1.284 0.034 1.901 0.27v0c0.506 0.193 1.01 0.513 1.511 0.958 0.505 0.454 0.678 0.891 0.517 1.311v0l-6.614 9.351c-5.797 8.185-9.274 13.199-10.429 15.041v0c-0.489 0.782-0.82 1.398-0.992 1.848v0c-0.29 0.759-0.49 1.534-0.602 2.326v0c-0.121 0.152-0.402 0.239-0.842 0.262-0.446 0.021-0.823-0.028-1.132-0.146v0c-0.561-0.214-1.151-0.521-1.77-0.92-0.621-0.393-0.984-0.708-1.091-0.946v0c-0.168-0.319-0.124-0.814 0.133-1.487v0c0.193-0.506 0.434-0.962 0.724-1.368v0c-0.913 0.613-2.072 0.965-3.479 1.058-1.4 0.094-2.468 0.002-3.202-0.279v0c-4.294-1.64-5.557-4.776-3.788-9.409v0c0.773-2.024 2.002-3.873 3.688-5.548 1.686-1.675 3.629-2.849 5.83-3.522 2.207-0.67 4.433-0.577 6.679 0.281v0c0.617 0.236 1.211 0.745 1.781 1.529 0.573 0.777 0.978 1.568 1.215 2.372v0c1.622-2.378 3.003-4.346 4.142-5.905v0c0.582-0.838 1.246-1.801 1.993-2.887 0.753-1.084 1.567-2.261 2.441-3.532zM97.764 257.171c0.069-0.681-0.112-1.4-0.544-2.158-0.435-0.767-0.85-1.226-1.245-1.377v0c-1.289-0.492-2.657-0.53-4.103-0.114-1.446 0.417-2.755 1.171-3.929 2.265-1.176 1.099-2.037 2.364-2.584 3.795v0c-0.408 1.067-0.578 2.098-0.512 3.092 0.074 0.99 0.519 1.64 1.333 1.951v0c0.703 0.269 1.612 0.35 2.727 0.246 1.121-0.102 2.188-0.388 3.201-0.856 1.017-0.46 1.759-1.053 2.227-1.78v0z"
                                    fill="white"></path>
                                  <path
                                    d="M114.187 277.647c-2.908-0.468-4.937-1.39-6.086-2.766-1.15-1.376-1.569-3.029-1.259-4.959v0c0.454-2.817 1.578-5.315 3.375-7.494 1.796-2.179 3.987-3.783 6.574-4.811 2.587-1.028 5.247-1.322 7.979-0.882v0c1.663 0.268 2.983 0.959 3.96 2.073 0.978 1.114 1.321 2.577 1.029 4.39v0c-0.168 1.043-0.638 1.844-1.41 2.401-0.78 0.563-1.834 1.002-3.162 1.317-1.329 0.321-3.466 0.733-6.41 1.236v0c-2.657 0.422-4.816 0.79-6.479 1.103v0c-0.195 0.423-0.331 0.873-0.408 1.349v0c-0.133 0.828 0.113 1.523 0.738 2.086 0.626 0.556 1.578 0.937 2.856 1.142v0c0.802 0.129 1.748 0.114 2.837-0.045 1.096-0.158 1.818-0.47 2.167-0.935v0c1.307-1.676 2.374-2.447 3.202-2.314v0c1.219 0.196 2.007 0.561 2.363 1.093 0.357 0.526 0.503 1.074 0.437 1.646v0c-0.504 0.889-1.356 1.732-2.554 2.528-1.192 0.798-2.641 1.381-4.346 1.749-1.705 0.368-3.506 0.399-5.403 0.093zM114.2 265.357c3.094-0.478 5.655-0.972 7.684-1.481 2.035-0.508 3.117-1.164 3.246-1.966v0c0.058-0.359-0.088-0.68-0.437-0.963-0.356-0.285-0.755-0.463-1.198-0.534v0c-0.893-0.144-1.965 0.031-3.215 0.525-1.251 0.501-2.448 1.161-3.59 1.981-1.137 0.827-1.967 1.64-2.49 2.438z"
                                    fill="white"></path>
                                  <path
                                    d="M140.529 279.72c-1.033-0.158-1.763-0.331-2.19-0.52-0.433-0.189-0.719-0.462-0.856-0.819-0.137-0.35-0.245-0.959-0.323-1.828v0c-0.199-2.04-0.44-4.061-0.724-6.063v0c-0.058-0.48-0.222-1.903-0.491-4.269-0.275-2.36-0.469-4.608-0.58-6.745v0c-0.028-0.541 0.225-1.004 0.76-1.389 0.535-0.392 1.225-0.61 2.069-0.654v0c1.622-0.085 2.472 0.608 2.549 2.079v0l0.685 12.344 0.165 3.156c1.814-3.891 3.885-7.914 6.214-12.07 2.329-4.162 3.869-6.263 4.62-6.302v0c0.963-0.05 1.784 0.095 2.463 0.437 0.679 0.341 1.044 0.752 1.097 1.232v0c-0.244 0.529-0.779 1.489-1.606 2.881v0c-0.336 0.533-0.93 1.56-1.783 3.079v0l-1.444 2.556c-2.32 4.069-3.937 6.859-4.85 8.368-0.913 1.509-1.7 2.595-2.359 3.257v0c-0.314 0.321-0.782 0.603-1.404 0.847-0.616 0.244-1.286 0.385-2.012 0.423z"
                                    fill="white"></path>
                                  <path
                                    d="M170.29 275.687c-2.851 0.739-5.08 0.71-6.685-0.088-1.606-0.798-2.654-2.143-3.144-4.035v0c-0.716-2.762-0.69-5.501 0.079-8.218 0.769-2.717 2.132-5.066 4.088-7.047 1.956-1.981 4.273-3.319 6.952-4.013v0c1.63-0.423 3.117-0.32 4.459 0.306 1.343 0.627 2.245 1.83 2.706 3.607v0c0.265 1.023 0.156 1.945-0.326 2.766-0.488 0.829-1.277 1.655-2.367 2.476-1.088 0.828-2.88 2.064-5.373 3.707v0c-2.263 1.453-4.093 2.658-5.49 3.614v0c-0.009 0.466 0.047 0.933 0.168 1.399v0c0.211 0.812 0.715 1.35 1.514 1.613 0.797 0.257 1.822 0.224 3.074-0.101v0c0.786-0.204 1.646-0.598 2.58-1.181 0.94-0.585 1.476-1.161 1.609-1.727v0c0.523-2.06 1.191-3.195 2.003-3.405v0c1.195-0.31 2.063-0.293 2.603 0.051 0.538 0.338 0.892 0.782 1.061 1.332v0c-0.105 1.016-0.546 2.13-1.323 3.341-0.771 1.21-1.863 2.325-3.277 3.347-1.413 1.022-3.05 1.774-4.911 2.256zM165.365 264.428c2.641-1.681 4.788-3.162 6.441-4.444 1.659-1.283 2.387-2.318 2.183-3.104v0c-0.091-0.352-0.354-0.587-0.787-0.707-0.44-0.118-0.877-0.12-1.312-0.007v0c-0.876 0.227-1.787 0.818-2.733 1.773-0.945 0.961-1.775 2.047-2.492 3.256-0.709 1.214-1.142 2.292-1.3 3.233z"
                                    fill="white"></path>
                                  <path
                                    d="M187.714 233.954l1.589 7.876c2.985 14.376 4.638 22.615 4.96 24.718v0c0.025 0.193-0.154 0.535-0.536 1.028-0.388 0.495-0.678 0.788-0.869 0.877v0c-0.76 0.356-1.58 0.511-2.463 0.465-0.891-0.049-1.561-0.483-2.009-1.302v0c0.005-0.068 0.008-0.419 0.009-1.054 0.002-0.635-0.098-1.486-0.298-2.552v0c-0.476-2.636-1.063-5.748-1.76-9.338-0.703-3.587-1.175-5.988-1.415-7.202v0l-1.736-8.704c-0.125-0.204-0.666-1.329-1.624-3.374v0c-0.082-0.392 0.089-0.822 0.511-1.29 0.431-0.465 0.865-0.799 1.302-1.004v0c0.682-0.319 1.492-0.418 2.432-0.296 0.936 0.13 1.572 0.514 1.907 1.152z"
                                    fill="white"></path>
                                  <path
                                    d="M213.998 256.331c-2.182 1.489-4.391 1.901-6.628 1.236-2.238-0.655-4.145-2.137-5.719-4.444v0c-1.321-1.937-2.102-4.082-2.342-6.437-0.236-2.349 0.098-4.596 1.002-6.74 0.904-2.144 2.324-3.876 4.26-5.198v0c1.915-1.307 3.914-1.751 5.998-1.334 2.089 0.413 3.964 1.837 5.623 4.27v0c1.169 1.713 1.906 3.812 2.211 6.298 0.311 2.482 0.089 4.864-0.664 7.146-0.754 2.281-2.001 4.016-3.741 5.203zM212.524 252.959c0.791-0.54 1.251-1.581 1.381-3.125 0.13-1.544-0.061-3.253-0.571-5.127-0.507-1.868-1.254-3.525-2.241-4.971v0c-1.508-2.209-3.181-2.687-5.019-1.432v0c-1.02 0.696-1.622 1.818-1.805 3.366-0.187 1.543-0.041 3.198 0.439 4.966 0.479 1.768 1.143 3.274 1.991 4.517v0c0.491 0.72 1.105 1.273 1.839 1.659 0.744 0.388 1.475 0.592 2.194 0.614 0.72 0.012 1.317-0.143 1.792-0.467z"
                                    fill="white"></path>
                                  <path
                                    d="M231.683 238.022c0.109 0.145 1.05 1.552 2.823 4.22 1.778 2.673 2.863 4.396 3.255 5.169v0c0.163 0.311 0.102 0.744-0.183 1.298-0.285 0.554-0.519 0.931-0.702 1.13v0c-0.447 0.486-0.973 0.747-1.579 0.783-0.606 0.035-1.229-0.219-1.87-0.762v0l-7.398-11.086c-2.665-4.079-4.964-7.536-6.898-10.37v0c-0.131-0.121-0.555-0.367-1.273-0.738v0c-0.413-0.263-0.807-0.503-1.18-0.722-0.369-0.223-0.643-0.393-0.821-0.511v0c-0.247-0.307-0.27-0.746-0.07-1.316 0.2-0.579 0.46-1.043 0.782-1.393v0c0.491-0.535 1.166-0.889 2.023-1.061 0.853-0.176 1.575-0.051 2.169 0.378v0l0.774 0.886c-0.325-2.136 0.224-3.978 1.644-5.525v0c1.161-1.265 2.468-2.077 3.92-2.438 1.452-0.361 2.917-0.311 4.396 0.149 1.478 0.461 2.837 1.261 4.077 2.4v0c1.659 1.523 2.925 3.278 3.799 5.265 0.87 1.982 1.165 4.029 0.886 6.139-0.284 2.106-1.26 4.066-2.926 5.881v0c-0.532 0.579-1.407 1.147-2.627 1.703-1.22 0.547-2.227 0.721-3.021 0.521zM228.403 233.113c0.227 0.289 0.397 0.486 0.509 0.589v0c0.572 0.49 1.226 0.754 1.962 0.793 0.736 0.048 1.433-0.056 2.09-0.313 0.662-0.253 1.134-0.532 1.416-0.839v0c0.898-0.978 1.317-2.176 1.256-3.594-0.061-1.428-0.455-2.844-1.183-4.247-0.733-1.408-1.598-2.571-2.595-3.487v0c-0.929-0.853-1.984-1.36-3.164-1.52-1.176-0.165-2.11 0.129-2.802 0.883v0c-0.773 0.841-1.227 1.702-1.362 2.582-0.131 0.875-0.135 2.002-0.011 3.38v0z"
                                    fill="white"></path>
                                  <path
                                    d="M254.367 213.981c-1.5 2.535-3.1 4.086-4.801 4.653-1.701 0.567-3.393 0.352-5.075-0.643v0c-2.456-1.453-4.369-3.413-5.74-5.882-1.371-2.469-2.062-5.095-2.073-7.879-0.011-2.784 0.689-5.367 2.098-7.748v0c0.857-1.449 1.983-2.425 3.378-2.928 1.395-0.502 2.882-0.286 4.462 0.649v0c0.909 0.538 1.483 1.268 1.719 2.191 0.239 0.932 0.262 2.073 0.069 3.424-0.188 1.355-0.586 3.494-1.195 6.418v0c-0.579 2.627-1.027 4.771-1.343 6.434v0c0.323 0.337 0.691 0.628 1.106 0.873v0c0.722 0.427 1.459 0.452 2.211 0.076 0.746-0.38 1.449-1.126 2.108-2.24v0c0.414-0.699 0.746-1.585 0.996-2.657 0.254-1.078 0.228-1.864-0.077-2.359v0c-1.082-1.829-1.409-3.105-0.982-3.827v0c0.629-1.063 1.256-1.663 1.881-1.799 0.62-0.14 1.184-0.075 1.692 0.195v0c0.643 0.794 1.116 1.895 1.418 3.303 0.307 1.401 0.319 2.963 0.038 4.683-0.282 1.721-0.912 3.409-1.89 5.063zM242.934 209.474c0.687-3.054 1.164-5.619 1.432-7.694 0.271-2.08 0.057-3.327-0.642-3.74v0c-0.313-0.185-0.665-0.167-1.056 0.054-0.395 0.227-0.707 0.533-0.936 0.92v0c-0.461 0.779-0.69 1.84-0.687 3.185 0.008 1.348 0.185 2.703 0.53 4.065 0.354 1.36 0.807 2.43 1.359 3.21z"
                                    fill="white"></path>
                                  <path
                                    d="M263.408 189.391c0.161 0.082 0.475 0.257 0.942 0.524 0.467 0.268 0.736 0.63 0.807 1.086 0.066 0.447-0.039 1.084-0.317 1.91v0c-0.315 0.939-0.642 1.592-0.98 1.959-0.343 0.359-0.843 0.428-1.501 0.208v0l-7.483-4.796c-4.321-2.716-7.061-4.473-8.221-5.272v0l-1.645 0.639c-0.111 0.06-0.226 0.071-0.345 0.031v0c-0.282-0.094-0.411-0.489-0.386-1.185 0.028-0.687 0.228-1.585 0.599-2.693v0c0.336-1.002 0.839-1.579 1.51-1.73 0.666-0.16 1.456-0.136 2.368 0.073v0l1.017 0.675c-0.808-1.288-1.373-2.658-1.695-4.11-0.319-1.458-0.322-2.657-0.006-3.596v0c0.411-1.227 0.944-2.111 1.598-2.651 0.661-0.538 1.332-0.692 2.015-0.463v0c0.601 0.201 1.152 0.616 1.652 1.243 0.5 0.627 0.868 1.329 1.103 2.104 0.235 0.775 0.28 1.473 0.134 2.093v0c-0.191 0.57-0.392 0.931-0.603 1.082-0.211 0.152-0.458 0.181-0.739 0.087v0l-1.331-0.738c-0.133 2.498 0.685 5.074 2.457 7.729v0z"
                                    fill="white"></path>
                                </g>
                              </svg></g>
                          </svg></g>
                      </svg></g>
                  </svg></g>
                <defs>
                  <mask></mask>
                </defs>
              </svg>
              <rect width="279.72" height="279.72" fill="black" stroke="none" visibility="hidden"></rect>
            </g>
          </mask>
          <linearGradient x1="0.054" x2="0.941" y1="0.5" y2="0.5" id="a70e0fed-dcf5-449d-8589-c7d9206bd261">
            <stop stop-color="#864d25" offset="0"></stop>
            <stop stop-color="#f1c4b3" offset="0.498"></stop>
            <stop stop-color="#864d25" offset="1"></stop>
          </linearGradient>
          <rect width="279.72" height="279.72" fill="url(#a70e0fed-dcf5-449d-8589-c7d9206bd261)"
            mask="url(#4c71d21b-1c37-4a9f-8473-5188e926b2c3)" data-fill-palette-color="primary"></rect>
          <mask id="81defe29-b9ff-4eb1-b916-a843a7f8f6fa">
            <g id="SvgjsG1571"><svg viewBox="0 0 279.72 279.72" height="279.72" width="279.72">
                <g><svg viewBox="0 0 279.72 279.72" height="279.72" width="279.72">
                    <g><svg viewBox="0 0 279.72 279.72" height="279.72" width="279.72">
                        <g id="SvgjsG1570"><svg viewBox="0 0 279.72 279.72" height="279.72" width="279.72"
                            id="SvgjsSvg1569">
                            <g><svg viewBox="0 0 279.72 279.72" height="279.72" width="279.72">
                                <g transform="matrix(1,0,0,1,57.446704652707865,57.446704652707865)"><svg
                                    viewBox="0 0 164.8265906945843 164.8265906945843" height="164.8265906945843"
                                    width="164.8265906945843">
                                    <g id="SvgjsG1568">
                                      <circle r="82" cx="82.41329534729215" cy="82.41329534729215" fill="white">
                                      </circle><svg xmlns="http://www.w3.org/2000/svg"
                                        xmlns:xlink="http://www.w3.org/1999/xlink" version="1.1" x="24.72398860418764"
                                        y="24.723988604187646" viewBox="13.344999999999999 13.345 73.31 73.31"
                                        style="enable-background:new 0 0 100 100;" xml:space="preserve"
                                        height="115.378613486209" width="115.378613486209" class="icon-xg-0"
                                        data-fill-palette-color="quaternary" id="SvgjsSvg1567">
                                        <path
                                          d="M50 13.345c-20.244 0-36.655 16.415-36.655 36.655 0 20.246 16.412 36.655 36.655 36.655 20.243 0 36.655-16.409 36.655-36.655C86.655 29.759 70.243 13.345 50 13.345zM36.801 30.74c3.74 0 6.784 3.041 6.784 6.781 0 3.74-3.044 6.781-6.784 6.781-3.737 0-6.779-3.042-6.779-6.781C30.022 33.781 33.064 30.74 36.801 30.74zM50 71.061c-9.508 0-17.391-7.008-18.809-16.125l37.62-0.004C67.394 64.053 59.51 71.061 50 71.061zM63.193 44.302c-3.737 0-6.778-3.042-6.778-6.781 0-3.74 3.041-6.781 6.778-6.781 3.74 0 6.784 3.041 6.784 6.781C69.977 41.261 66.933 44.302 63.193 44.302z"
                                          fill="black"></path>
                                      </svg>
                                    </g>
                                  </svg></g>
                                <g id="SvgjsG1566"></g>
                                <g id="SvgjsG1565"></g>
                              </svg></g>
                          </svg></g>
                      </svg></g>
                  </svg></g>
                <defs>
                  <mask></mask>
                </defs>
                <mask>
                  <g id="SvgjsG1564"><svg viewBox="0 0 279.72 279.72" height="279.72" width="279.72">
                      <g><svg viewBox="0 0 279.72 279.72" height="279.72" width="279.72">
                          <g><svg viewBox="0 0 279.72 279.72" height="279.72" width="279.72">
                              <g id="SvgjsG1563"><svg viewBox="0 0 279.72 279.72" height="279.72" width="279.72"
                                  id="SvgjsSvg1562">
                                  <g><svg viewBox="0 0 279.72 279.72" height="279.72" width="279.72">
                                      <g transform="matrix(1,0,0,1,57.446704652707865,57.446704652707865)"><svg
                                          viewBox="0 0 164.8265906945843 164.8265906945843" height="164.8265906945843"
                                          width="164.8265906945843">
                                          <g id="SvgjsG1561">
                                            <circle r="82" cx="82.41329534729215" cy="82.41329534729215" fill="black">
                                            </circle><svg xmlns="http://www.w3.org/2000/svg"
                                              xmlns:xlink="http://www.w3.org/1999/xlink" version="1.1"
                                              x="24.72398860418764" y="24.723988604187646"
                                              viewBox="13.344999999999999 13.345 73.31 73.31"
                                              style="enable-background:new 0 0 100 100;" xml:space="preserve"
                                              height="115.378613486209" width="115.378613486209" class="icon-xg-0"
                                              data-fill-palette-color="quaternary" id="SvgjsSvg1560">
                                              <path
                                                d="M50 13.345c-20.244 0-36.655 16.415-36.655 36.655 0 20.246 16.412 36.655 36.655 36.655 20.243 0 36.655-16.409 36.655-36.655C86.655 29.759 70.243 13.345 50 13.345zM36.801 30.74c3.74 0 6.784 3.041 6.784 6.781 0 3.74-3.044 6.781-6.784 6.781-3.737 0-6.779-3.042-6.779-6.781C30.022 33.781 33.064 30.74 36.801 30.74zM50 71.061c-9.508 0-17.391-7.008-18.809-16.125l37.62-0.004C67.394 64.053 59.51 71.061 50 71.061zM63.193 44.302c-3.737 0-6.778-3.042-6.778-6.781 0-3.74 3.041-6.781 6.778-6.781 3.74 0 6.784 3.041 6.784 6.781C69.977 41.261 66.933 44.302 63.193 44.302z"
                                                fill="black"></path>
                                            </svg>
                                          </g>
                                        </svg></g>
                                      <g id="SvgjsG1559">
                                        <path
                                          d="M13.476 87.645c-0.448-0.025-0.986 0.326-1.613 1.052-0.627 0.726-1.191 1.768-1.691 3.125v0c-0.546 1.481-0.556 2.786-0.03 3.917 0.524 1.137 1.415 1.937 2.672 2.401v0c0.774 0.286 1.473 0.223 2.097-0.188 0.623-0.411 1.404-1.115 2.342-2.113v0l1.068-1.148 0.944-0.929c1.102-1.135 2.043-2.009 2.826-2.622 0.782-0.613 1.702-1.037 2.761-1.273 1.058-0.236 2.254-0.108 3.586 0.383v0c1.431 0.528 2.494 1.455 3.187 2.781 0.693 1.326 0.999 2.931 0.916 4.815-0.074 1.88-0.524 3.939-1.349 6.176v0c-0.613 1.661-1.445 3.117-2.498 4.368-1.047 1.254-2.113 2.159-3.199 2.716-1.092 0.555-2.015 0.693-2.771 0.414v0c-0.725-0.267-1.203-0.803-1.435-1.606-0.234-0.797-0.227-1.808 0.021-3.034v0c0.777 0.146 1.587-0.037 2.431-0.549 0.846-0.519 1.618-1.198 2.315-2.039 0.697-0.841 1.181-1.627 1.45-2.358v0c0.491-1.332 0.666-2.616 0.524-3.852-0.143-1.235-0.679-2.024-1.608-2.367v0c-0.781-0.288-1.564-0.158-2.351 0.39-0.789 0.554-1.76 1.459-2.913 2.716v0l-1.639 1.665c-1.409 1.339-2.791 2.3-4.147 2.884-1.356 0.584-2.861 0.571-4.515-0.04v0c-1.834-0.677-3.134-1.741-3.901-3.192-0.758-1.455-1.118-3.01-1.078-4.663 0.04-1.654 0.319-3.184 0.838-4.59v0c0.825-2.237 1.792-3.971 2.901-5.202 1.109-1.231 2.223-2.01 3.343-2.335 1.122-0.332 2.148-0.327 3.078 0.016v0c0.527 0.194 1.119 0.564 1.776 1.109 0.654 0.537 1.161 1.164 1.523 1.882 0.366 0.726 0.415 1.452 0.147 2.176v0c-0.464 1.258-1.35 1.646-2.657 1.164v0c-0.384-0.198-1.002-0.556-1.852-1.075-0.853-0.512-1.353-0.837-1.499-0.975z"
                                          fill="black"></path>
                                        <path
                                          d="M66.686 49.097c0.498 0.495 0.981 0.911 1.448 1.249v0c0.064 0.154-0.01 0.428-0.221 0.82-0.207 0.397-0.42 0.691-0.64 0.881v0c-0.729 0.631-1.344 0.975-1.844 1.033-0.496 0.062-0.93-0.121-1.302-0.551v0c-0.35-0.405-0.66-0.844-0.93-1.317v0c0.083 0.994-0.135 2.06-0.652 3.197-0.518 1.138-1.041 1.936-1.571 2.394v0c-1.358 1.175-2.828 1.757-4.41 1.746-1.582-0.011-3.127-0.888-4.635-2.631v0c-1.417-1.638-2.363-3.518-2.837-5.641-0.474-2.122-0.402-4.219 0.216-6.291 0.609-2.072 1.754-3.837 3.437-5.293v0c0.325-0.281 0.825-0.561 1.501-0.839 0.671-0.284 1.456-0.452 2.354-0.505 0.897-0.043 1.807 0.1 2.729 0.429v0c0.165-0.143 0.428-0.227 0.79-0.252 0.363-0.035 0.616 0.03 0.759 0.196v0c0.156 0.18 0.283 0.388 0.383 0.624v0zM57.958 41.781c-0.504-0.341-1.066-0.51-1.684-0.508-0.618 0.002-1.07 0.126-1.354 0.373v0c-0.929 0.804-1.518 1.89-1.767 3.257-0.254 1.372-0.213 2.761 0.121 4.166 0.338 1.41 0.883 2.55 1.635 3.419v0c0.739 0.854 1.444 1.467 2.115 1.839 0.676 0.367 1.306 0.298 1.89-0.208v0c0.509-0.441 0.962-1.094 1.356-1.96 0.396-0.875 0.628-1.797 0.699-2.766 0.069-0.959-0.06-1.791-0.389-2.493v0z"
                                          fill="black"></path>
                                        <path
                                          d="M119.023 10.363c0.137 0.132 0.337 0.396 0.6 0.791 0.269 0.394 0.429 0.707 0.48 0.939v0c0.03 0.135 0.035 0.219 0.015 0.25v0c-0.095 0.183-0.366 0.378-0.815 0.585-0.447 0.213-0.748 0.351-0.903 0.412v0c-0.691 0.7-1.796 1.812-3.313 3.336-1.517 1.524-2.622 2.636-3.313 3.336v0c0.191 0.621 0.873 1.478 2.047 2.572 1.169 1.102 2.393 2.114 3.671 3.037 1.273 0.93 2.013 1.373 2.219 1.327v0c0.239-0.053 0.575 0.08 1.01 0.396 0.44 0.309 0.695 0.621 0.764 0.938v0c0.064 0.29-0.079 0.515-0.43 0.673v0c-0.221 0.103-0.64 0.29-1.256 0.56-0.61 0.27-1.151 0.456-1.621 0.56v0c-0.419 0.092-0.756 0.112-1.012 0.06v0c-0.645-0.074-1.618-0.594-2.919-1.559-1.293-0.96-2.573-2.074-3.84-3.344-1.267-1.27-2.16-2.409-2.679-3.417v0c-0.096 3.558-0.179 5.993-0.248 7.307-0.061 1.319-0.157 2.188-0.288 2.61-0.123 0.426-0.329 0.671-0.619 0.735v0l-1.085 0.279c-1.729 0.38-2.784-0.114-3.167-1.484v0c0.241-1.392 0.376-2.531 0.405-3.416v0c0.474-10.167 0.724-17.802 0.75-22.907v0c-0.112-0.388-0.257-0.924-0.435-1.608-0.178-0.684-0.31-1.223-0.396-1.617v0c0.002-0.359 0.235-0.698 0.699-1.016 0.463-0.325 0.904-0.534 1.323-0.626v0c0.651-0.143 1.394-0.073 2.227 0.21 0.827 0.285 1.322 0.737 1.485 1.357v0l-0.47 14.456-0.071 2.856c0.398-0.804 1.148-1.849 2.252-3.133 1.097-1.283 2.26-2.469 3.488-3.557 1.226-1.095 2.242-1.812 3.046-2.151v0c0.206-0.045 0.604-0.065 1.194-0.06 0.596 0.004 0.998 0.108 1.205 0.313z"
                                          fill="black"></path>
                                        <path
                                          d="M166.216 31.852c-2.528-0.696-4.236-1.708-5.124-3.034-0.882-1.325-1.091-2.828-0.629-4.51v0c0.675-2.451 1.911-4.553 3.709-6.304 1.804-1.75 3.9-2.957 6.289-3.622 2.389-0.664 4.77-0.669 7.146-0.015v0c1.445 0.398 2.546 1.14 3.302 2.224 0.762 1.087 0.927 2.416 0.494 3.99v0c-0.249 0.904-0.746 1.565-1.492 1.983-0.739 0.42-1.712 0.707-2.918 0.861-1.207 0.154-3.137 0.311-5.792 0.47v0c-2.397 0.121-4.347 0.238-5.85 0.352v0c-0.207 0.354-0.368 0.738-0.482 1.151v0c-0.2 0.726-0.051 1.366 0.447 1.922 0.5 0.549 1.307 0.976 2.421 1.283v0c0.694 0.191 1.532 0.271 2.513 0.24 0.983-0.038 1.65-0.244 2-0.621v0c1.319-1.356 2.341-1.934 3.067-1.734v0c1.057 0.291 1.718 0.689 1.983 1.193 0.265 0.505 0.343 1.006 0.234 1.503v0c-0.538 0.735-1.375 1.399-2.511 1.99-1.136 0.591-2.475 0.966-4.019 1.123-1.543 0.157-3.14 0.009-4.788-0.445zM167.42 20.984c2.781-0.125 5.094-0.316 6.94-0.575 1.85-0.251 2.872-0.727 3.065-1.427v0c0.084-0.306-0.015-0.604-0.299-0.894-0.285-0.284-0.618-0.479-1-0.584v0c-0.777-0.214-1.743-0.162-2.9 0.157-1.158 0.325-2.28 0.793-3.366 1.405-1.088 0.618-1.901 1.257-2.44 1.918z"
                                          fill="black"></path>
                                        <path
                                          d="M225.78 47.622l-8.711 5.743c-0.416 0.452-0.627 0.921-0.635 1.408-0.012 0.482 0.198 0.922 0.63 1.32v0c0.593 0.545 1.24 0.822 1.942 0.83 0.701 0.008 1.559-0.105 2.573-0.34v0c0.732-0.162 1.289-0.25 1.671-0.266 0.373-0.016 0.689 0.095 0.946 0.331v0c0.51 0.469 0.817 0.868 0.92 1.196 0.098 0.332-0.034 0.696-0.396 1.089v0c-0.161 0.175-0.375 0.369-0.642 0.581-0.267 0.203-0.486 0.338-0.656 0.406v0c-1.397 0.573-2.968 0.73-4.712 0.471-1.745-0.259-3.298-1.014-4.659-2.265v0c-1.356-1.247-2.076-2.519-2.159-3.814-0.082-1.296 0.437-2.554 1.559-3.774v0c0.165-0.18 0.68-0.564 1.543-1.152 0.868-0.583 1.921-1.27 3.16-2.061v0l3.922-2.611-1.936-1.51c-0.238-0.219-0.335-0.47-0.291-0.752 0.049-0.287 0.189-0.557 0.422-0.81v0c0.456-0.496 1.085-0.828 1.886-0.998v0c0.097-0.018 0.35 0.107 0.759 0.375 0.413 0.263 0.902 0.6 1.466 1.011v0l0.875 0.643 4.975-3.392c0.669-0.327 1.337-0.449 2.004-0.365 0.667 0.084 1.178 0.289 1.534 0.616v0c0.394 0.362 0.62 0.79 0.677 1.283 0.058 0.493-0.046 0.904-0.312 1.233v0l-5.142 3.455c0.858 0.609 1.648 1.183 2.372 1.723 0.719 0.535 1.266 0.975 1.64 1.319v0c0.749 0.688 0.725 1.465-0.07 2.331v0c-0.308 0.335-0.727 0.507-1.254 0.515-0.533 0.004-0.994-0.12-1.383-0.369v0z"
                                          fill="black"></path>
                                        <path
                                          d="M256.336 95.478c1.341 0.177 2.599 0.631 3.773 1.36 1.174 0.729 2.166 1.544 2.974 2.446 0.809 0.902 1.336 1.695 1.582 2.379v0c0.472 1.311 0.563 2.345 0.273 3.102-0.283 0.754-0.953 1.322-2.009 1.702v0c-4.412-0.091-8.948 0.431-13.607 1.566v0l-1.654 1.195c-0.694-0.094-1.299-0.333-1.816-0.716-0.523-0.38-0.97-1.087-1.34-2.118v0c-0.219-0.609-0.176-1.123 0.13-1.542 0.303-0.425 0.756-0.746 1.359-0.962v0c1.69-0.608 3.637-1.03 5.839-1.268 2.203-0.238 4.482-0.408 6.838-0.512v0c0.891-0.04 1.352-0.065 1.383-0.076v0c0.348-0.125 0.449-0.39 0.305-0.793v0c-0.19-0.528-0.854-1.156-1.994-1.884-1.145-0.725-2.838-1.296-5.078-1.711-2.243-0.422-4.993-0.457-8.25-0.107v0c-0.139 0.022-0.429 0.056-0.869 0.101-0.436 0.037-0.806-0.086-1.112-0.368-0.301-0.292-0.584-0.804-0.847-1.538v0c-0.317-0.882-0.469-1.597-0.455-2.142 0.021-0.548 0.307-0.921 0.861-1.12v0c14.163-1.366 23.01-2.242 26.542-2.627v0c0.314-0.141 0.739-0.315 1.275-0.522 0.542-0.209 0.963-0.367 1.261-0.475v0c0.381-0.053 0.749 0.12 1.103 0.52 0.36 0.397 0.626 0.835 0.799 1.313v0c0.29 0.808 0.321 1.565 0.09 2.273-0.23 0.707-0.662 1.203-1.297 1.487v0z"
                                          fill="black"></path>
                                        <path
                                          d="M9.306 142.195c0-1.97 1.597-3.567 3.567-3.567 1.97 0 3.567 1.597 3.567 3.567 0 1.97-1.597 3.567-3.567 3.567-1.97 0-3.567-1.597-3.567-3.567z"
                                          fill="black"></path>
                                        <path
                                          d="M258.699 142.195c0-1.97 1.597-3.567 3.567-3.567 1.97 0 3.567 1.597 3.567 3.567 0 1.97-1.597 3.567-3.567 3.567-1.97 0-3.567-1.597-3.567-3.567z"
                                          fill="black"></path>
                                      </g>
                                      <g id="SvgjsG1558">
                                        <path
                                          d="M20.969 189.614c-3.463 0.235-6.365-0.067-8.703-0.906-2.333-0.842-3.808-2.046-4.425-3.614v0c-1.103-2.802 0.865-5.195 5.904-7.179v0c2.095-0.825 4.253-1.376 6.471-1.653 2.221-0.271 4.186-0.374 5.894-0.308v0c1.372 0.042 2.312 0.708 2.82 1.998v0c0.573 1.456 0.218 2.437-1.066 2.943v0c-0.141 0.056-0.755 0.102-1.841 0.139v0c-4.682 0.097-8.113 0.575-10.294 1.434v0c-1.039 0.409-1.85 0.835-2.435 1.278-0.587 0.437-0.798 0.868-0.631 1.292v0c0.298 0.756 1.491 1.262 3.579 1.519 2.091 0.263 4.491 0.319 7.199 0.168 2.705-0.142 5.021-0.398 6.949-0.767v0c0.384-0.087 0.812 0.06 1.281 0.443 0.474 0.374 0.783 0.746 0.929 1.115v0c0.285 0.725 0.326 1.305 0.121 1.741-0.199 0.433-0.648 0.787-1.349 1.063v0c-0.135 0.053-0.601 0.141-1.398 0.263v0c-2.401 0.463-4.427 0.88-6.075 1.253-1.649 0.372-3.143 0.822-4.483 1.349v0c-0.897 0.353-1.573 0.79-2.029 1.31-0.462 0.522-0.604 1.008-0.427 1.457v0c0.506 1.284 2.568 1.835 6.186 1.652 3.615-0.174 7.401-0.653 11.358-1.437v0c0.769-0.175 1.373 0.297 1.814 1.415v0c0.244 0.621 0.377 1.264 0.398 1.93 0.023 0.672-0.086 1.07-0.329 1.194v0l-2.32 0.381c-3.976 0.664-7.22 1.086-9.732 1.266-2.519 0.183-4.893-0.097-7.122-0.837-2.227-0.734-3.782-2.223-4.665-4.466v0c-0.98-2.489 0.518-4.516 4.494-6.081v0c1.229-0.484 2.561-0.877 3.996-1.18v0z"
                                          fill="black"></path>
                                        <path
                                          d="M25.58 221.353c-1.718-2.393-2.494-4.482-2.329-6.267 0.165-1.785 1.042-3.248 2.63-4.388v0c2.318-1.664 4.882-2.627 7.694-2.89 2.812-0.263 5.494 0.161 8.047 1.271 2.553 1.11 4.637 2.789 6.25 5.037v0c0.982 1.368 1.423 2.791 1.322 4.27-0.101 1.479-0.897 2.754-2.388 3.825v0c-0.858 0.616-1.758 0.847-2.698 0.693-0.949-0.156-2.004-0.594-3.163-1.315-1.165-0.717-2.963-1.942-5.395-3.675v0c-2.172-1.587-3.955-2.859-5.35-3.817v0c-0.438 0.16-0.853 0.381-1.245 0.662v0c-0.681 0.489-1.001 1.154-0.959 1.993 0.047 0.836 0.448 1.78 1.204 2.831v0c0.474 0.66 1.151 1.32 2.031 1.981 0.884 0.666 1.615 0.958 2.192 0.877v0c2.11-0.255 3.409-0.041 3.898 0.64v0c0.72 1.003 1.017 1.819 0.891 2.447-0.121 0.624-0.408 1.114-0.859 1.47v0c-0.986 0.269-2.184 0.259-3.595-0.029-1.406-0.283-2.841-0.899-4.303-1.85-1.463-0.95-2.754-2.205-3.875-3.766zM34.305 212.698c2.52 1.857 4.676 3.325 6.468 4.405 1.795 1.085 3.023 1.391 3.683 0.917v0c0.295-0.212 0.42-0.542 0.375-0.989-0.049-0.453-0.204-0.862-0.466-1.226v0c-0.528-0.735-1.408-1.372-2.639-1.91-1.237-0.534-2.549-0.918-3.936-1.15-1.388-0.223-2.549-0.239-3.485-0.047z"
                                          fill="black"></path>
                                        <path
                                          d="M44.717 239.161c-0.409 0.194-0.758 0.384-1.046 0.57v0c-0.662 0.34-1.177 0.559-1.545 0.657-0.368 0.098-0.721-0.002-1.058-0.299v0l-0.969-0.803c-0.564-0.498-0.912-1.017-1.044-1.557-0.131-0.53 0.1-1.176 0.695-1.938v0c0.047-0.003 0.386-0.157 1.017-0.463 0.627-0.301 1.412-0.78 2.353-1.437v0c1.242-0.868 2.478-1.723 3.708-2.566 1.22-0.843 2.405-1.66 3.554-2.452v0c1.513-1.034 3.765-2.586 6.758-4.657 2.993-2.071 5.356-3.724 7.09-4.959v0c0.273-0.358 0.663-0.846 1.173-1.462 0.504-0.621 0.905-1.099 1.203-1.436v0c0.327-0.231 0.792-0.243 1.394-0.037 0.593 0.207 1.07 0.469 1.431 0.788v0c0.564 0.498 0.982 1.207 1.255 2.126 0.268 0.924 0.176 1.666-0.276 2.228v0l-11.381 7.765c1.225-0.16 2.396 0.001 3.511 0.484 1.12 0.487 2.052 1.059 2.795 1.715v0c1.059 0.936 1.743 2.082 2.051 3.439 0.304 1.352 0.256 2.742-0.142 4.17-0.403 1.433-1.091 2.702-2.066 3.806v0c-1.434 1.623-3.228 2.881-5.381 3.772-2.144 0.891-4.392 1.191-6.745 0.901-2.348-0.294-4.505-1.31-6.47-3.045v0c-0.559-0.494-1.073-1.309-1.541-2.445-0.463-1.132-0.571-2.086-0.324-2.865zM48.005 237.07c-0.158 0.777-0.124 1.627 0.102 2.548 0.226 0.922 0.576 1.593 1.05 2.013v0c1.059 0.936 2.442 1.325 4.15 1.167 1.702-0.162 3.386-0.661 5.052-1.498 1.661-0.833 2.95-1.769 3.869-2.808v0c0.638-0.723 0.972-1.49 1.001-2.301 0.039-0.812-0.313-1.546-1.056-2.202v0c-0.658-0.582-1.488-1.054-2.488-1.418-1.005-0.359-2.037-0.517-3.096-0.475-1.064 0.047-2.014 0.34-2.851 0.878v0z"
                                          fill="black"></path>
                                        <path
                                          d="M108.76 241.286c0.274-0.383 0.736-0.603 1.386-0.658 0.65-0.056 1.284 0.034 1.901 0.27v0c0.506 0.193 1.01 0.513 1.511 0.958 0.505 0.454 0.678 0.891 0.517 1.311v0l-6.614 9.351c-5.797 8.185-9.274 13.199-10.429 15.041v0c-0.489 0.782-0.82 1.398-0.992 1.848v0c-0.29 0.759-0.49 1.534-0.602 2.326v0c-0.121 0.152-0.402 0.239-0.842 0.262-0.446 0.021-0.823-0.028-1.132-0.146v0c-0.561-0.214-1.151-0.521-1.77-0.92-0.621-0.393-0.984-0.708-1.091-0.946v0c-0.168-0.319-0.124-0.814 0.133-1.487v0c0.193-0.506 0.434-0.962 0.724-1.368v0c-0.913 0.613-2.072 0.965-3.479 1.058-1.4 0.094-2.468 0.002-3.202-0.279v0c-4.294-1.64-5.557-4.776-3.788-9.409v0c0.773-2.024 2.002-3.873 3.688-5.548 1.686-1.675 3.629-2.849 5.83-3.522 2.207-0.67 4.433-0.577 6.679 0.281v0c0.617 0.236 1.211 0.745 1.781 1.529 0.573 0.777 0.978 1.568 1.215 2.372v0c1.622-2.378 3.003-4.346 4.142-5.905v0c0.582-0.838 1.246-1.801 1.993-2.887 0.753-1.084 1.567-2.261 2.441-3.532zM97.764 257.171c0.069-0.681-0.112-1.4-0.544-2.158-0.435-0.767-0.85-1.226-1.245-1.377v0c-1.289-0.492-2.657-0.53-4.103-0.114-1.446 0.417-2.755 1.171-3.929 2.265-1.176 1.099-2.037 2.364-2.584 3.795v0c-0.408 1.067-0.578 2.098-0.512 3.092 0.074 0.99 0.519 1.64 1.333 1.951v0c0.703 0.269 1.612 0.35 2.727 0.246 1.121-0.102 2.188-0.388 3.201-0.856 1.017-0.46 1.759-1.053 2.227-1.78v0z"
                                          fill="black"></path>
                                        <path
                                          d="M114.187 277.647c-2.908-0.468-4.937-1.39-6.086-2.766-1.15-1.376-1.569-3.029-1.259-4.959v0c0.454-2.817 1.578-5.315 3.375-7.494 1.796-2.179 3.987-3.783 6.574-4.811 2.587-1.028 5.247-1.322 7.979-0.882v0c1.663 0.268 2.983 0.959 3.96 2.073 0.978 1.114 1.321 2.577 1.029 4.39v0c-0.168 1.043-0.638 1.844-1.41 2.401-0.78 0.563-1.834 1.002-3.162 1.317-1.329 0.321-3.466 0.733-6.41 1.236v0c-2.657 0.422-4.816 0.79-6.479 1.103v0c-0.195 0.423-0.331 0.873-0.408 1.349v0c-0.133 0.828 0.113 1.523 0.738 2.086 0.626 0.556 1.578 0.937 2.856 1.142v0c0.802 0.129 1.748 0.114 2.837-0.045 1.096-0.158 1.818-0.47 2.167-0.935v0c1.307-1.676 2.374-2.447 3.202-2.314v0c1.219 0.196 2.007 0.561 2.363 1.093 0.357 0.526 0.503 1.074 0.437 1.646v0c-0.504 0.889-1.356 1.732-2.554 2.528-1.192 0.798-2.641 1.381-4.346 1.749-1.705 0.368-3.506 0.399-5.403 0.093zM114.2 265.357c3.094-0.478 5.655-0.972 7.684-1.481 2.035-0.508 3.117-1.164 3.246-1.966v0c0.058-0.359-0.088-0.68-0.437-0.963-0.356-0.285-0.755-0.463-1.198-0.534v0c-0.893-0.144-1.965 0.031-3.215 0.525-1.251 0.501-2.448 1.161-3.59 1.981-1.137 0.827-1.967 1.64-2.49 2.438z"
                                          fill="black"></path>
                                        <path
                                          d="M140.529 279.72c-1.033-0.158-1.763-0.331-2.19-0.52-0.433-0.189-0.719-0.462-0.856-0.819-0.137-0.35-0.245-0.959-0.323-1.828v0c-0.199-2.04-0.44-4.061-0.724-6.063v0c-0.058-0.48-0.222-1.903-0.491-4.269-0.275-2.36-0.469-4.608-0.58-6.745v0c-0.028-0.541 0.225-1.004 0.76-1.389 0.535-0.392 1.225-0.61 2.069-0.654v0c1.622-0.085 2.472 0.608 2.549 2.079v0l0.685 12.344 0.165 3.156c1.814-3.891 3.885-7.914 6.214-12.07 2.329-4.162 3.869-6.263 4.62-6.302v0c0.963-0.05 1.784 0.095 2.463 0.437 0.679 0.341 1.044 0.752 1.097 1.232v0c-0.244 0.529-0.779 1.489-1.606 2.881v0c-0.336 0.533-0.93 1.56-1.783 3.079v0l-1.444 2.556c-2.32 4.069-3.937 6.859-4.85 8.368-0.913 1.509-1.7 2.595-2.359 3.257v0c-0.314 0.321-0.782 0.603-1.404 0.847-0.616 0.244-1.286 0.385-2.012 0.423z"
                                          fill="black"></path>
                                        <path
                                          d="M170.29 275.687c-2.851 0.739-5.08 0.71-6.685-0.088-1.606-0.798-2.654-2.143-3.144-4.035v0c-0.716-2.762-0.69-5.501 0.079-8.218 0.769-2.717 2.132-5.066 4.088-7.047 1.956-1.981 4.273-3.319 6.952-4.013v0c1.63-0.423 3.117-0.32 4.459 0.306 1.343 0.627 2.245 1.83 2.706 3.607v0c0.265 1.023 0.156 1.945-0.326 2.766-0.488 0.829-1.277 1.655-2.367 2.476-1.088 0.828-2.88 2.064-5.373 3.707v0c-2.263 1.453-4.093 2.658-5.49 3.614v0c-0.009 0.466 0.047 0.933 0.168 1.399v0c0.211 0.812 0.715 1.35 1.514 1.613 0.797 0.257 1.822 0.224 3.074-0.101v0c0.786-0.204 1.646-0.598 2.58-1.181 0.94-0.585 1.476-1.161 1.609-1.727v0c0.523-2.06 1.191-3.195 2.003-3.405v0c1.195-0.31 2.063-0.293 2.603 0.051 0.538 0.338 0.892 0.782 1.061 1.332v0c-0.105 1.016-0.546 2.13-1.323 3.341-0.771 1.21-1.863 2.325-3.277 3.347-1.413 1.022-3.05 1.774-4.911 2.256zM165.365 264.428c2.641-1.681 4.788-3.162 6.441-4.444 1.659-1.283 2.387-2.318 2.183-3.104v0c-0.091-0.352-0.354-0.587-0.787-0.707-0.44-0.118-0.877-0.12-1.312-0.007v0c-0.876 0.227-1.787 0.818-2.733 1.773-0.945 0.961-1.775 2.047-2.492 3.256-0.709 1.214-1.142 2.292-1.3 3.233z"
                                          fill="black"></path>
                                        <path
                                          d="M187.714 233.954l1.589 7.876c2.985 14.376 4.638 22.615 4.96 24.718v0c0.025 0.193-0.154 0.535-0.536 1.028-0.388 0.495-0.678 0.788-0.869 0.877v0c-0.76 0.356-1.58 0.511-2.463 0.465-0.891-0.049-1.561-0.483-2.009-1.302v0c0.005-0.068 0.008-0.419 0.009-1.054 0.002-0.635-0.098-1.486-0.298-2.552v0c-0.476-2.636-1.063-5.748-1.76-9.338-0.703-3.587-1.175-5.988-1.415-7.202v0l-1.736-8.704c-0.125-0.204-0.666-1.329-1.624-3.374v0c-0.082-0.392 0.089-0.822 0.511-1.29 0.431-0.465 0.865-0.799 1.302-1.004v0c0.682-0.319 1.492-0.418 2.432-0.296 0.936 0.13 1.572 0.514 1.907 1.152z"
                                          fill="black"></path>
                                        <path
                                          d="M213.998 256.331c-2.182 1.489-4.391 1.901-6.628 1.236-2.238-0.655-4.145-2.137-5.719-4.444v0c-1.321-1.937-2.102-4.082-2.342-6.437-0.236-2.349 0.098-4.596 1.002-6.74 0.904-2.144 2.324-3.876 4.26-5.198v0c1.915-1.307 3.914-1.751 5.998-1.334 2.089 0.413 3.964 1.837 5.623 4.27v0c1.169 1.713 1.906 3.812 2.211 6.298 0.311 2.482 0.089 4.864-0.664 7.146-0.754 2.281-2.001 4.016-3.741 5.203zM212.524 252.959c0.791-0.54 1.251-1.581 1.381-3.125 0.13-1.544-0.061-3.253-0.571-5.127-0.507-1.868-1.254-3.525-2.241-4.971v0c-1.508-2.209-3.181-2.687-5.019-1.432v0c-1.02 0.696-1.622 1.818-1.805 3.366-0.187 1.543-0.041 3.198 0.439 4.966 0.479 1.768 1.143 3.274 1.991 4.517v0c0.491 0.72 1.105 1.273 1.839 1.659 0.744 0.388 1.475 0.592 2.194 0.614 0.72 0.012 1.317-0.143 1.792-0.467z"
                                          fill="black"></path>
                                        <path
                                          d="M231.683 238.022c0.109 0.145 1.05 1.552 2.823 4.22 1.778 2.673 2.863 4.396 3.255 5.169v0c0.163 0.311 0.102 0.744-0.183 1.298-0.285 0.554-0.519 0.931-0.702 1.13v0c-0.447 0.486-0.973 0.747-1.579 0.783-0.606 0.035-1.229-0.219-1.87-0.762v0l-7.398-11.086c-2.665-4.079-4.964-7.536-6.898-10.37v0c-0.131-0.121-0.555-0.367-1.273-0.738v0c-0.413-0.263-0.807-0.503-1.18-0.722-0.369-0.223-0.643-0.393-0.821-0.511v0c-0.247-0.307-0.27-0.746-0.07-1.316 0.2-0.579 0.46-1.043 0.782-1.393v0c0.491-0.535 1.166-0.889 2.023-1.061 0.853-0.176 1.575-0.051 2.169 0.378v0l0.774 0.886c-0.325-2.136 0.224-3.978 1.644-5.525v0c1.161-1.265 2.468-2.077 3.92-2.438 1.452-0.361 2.917-0.311 4.396 0.149 1.478 0.461 2.837 1.261 4.077 2.4v0c1.659 1.523 2.925 3.278 3.799 5.265 0.87 1.982 1.165 4.029 0.886 6.139-0.284 2.106-1.26 4.066-2.926 5.881v0c-0.532 0.579-1.407 1.147-2.627 1.703-1.22 0.547-2.227 0.721-3.021 0.521zM228.403 233.113c0.227 0.289 0.397 0.486 0.509 0.589v0c0.572 0.49 1.226 0.754 1.962 0.793 0.736 0.048 1.433-0.056 2.09-0.313 0.662-0.253 1.134-0.532 1.416-0.839v0c0.898-0.978 1.317-2.176 1.256-3.594-0.061-1.428-0.455-2.844-1.183-4.247-0.733-1.408-1.598-2.571-2.595-3.487v0c-0.929-0.853-1.984-1.36-3.164-1.52-1.176-0.165-2.11 0.129-2.802 0.883v0c-0.773 0.841-1.227 1.702-1.362 2.582-0.131 0.875-0.135 2.002-0.011 3.38v0z"
                                          fill="black"></path>
                                        <path
                                          d="M254.367 213.981c-1.5 2.535-3.1 4.086-4.801 4.653-1.701 0.567-3.393 0.352-5.075-0.643v0c-2.456-1.453-4.369-3.413-5.74-5.882-1.371-2.469-2.062-5.095-2.073-7.879-0.011-2.784 0.689-5.367 2.098-7.748v0c0.857-1.449 1.983-2.425 3.378-2.928 1.395-0.502 2.882-0.286 4.462 0.649v0c0.909 0.538 1.483 1.268 1.719 2.191 0.239 0.932 0.262 2.073 0.069 3.424-0.188 1.355-0.586 3.494-1.195 6.418v0c-0.579 2.627-1.027 4.771-1.343 6.434v0c0.323 0.337 0.691 0.628 1.106 0.873v0c0.722 0.427 1.459 0.452 2.211 0.076 0.746-0.38 1.449-1.126 2.108-2.24v0c0.414-0.699 0.746-1.585 0.996-2.657 0.254-1.078 0.228-1.864-0.077-2.359v0c-1.082-1.829-1.409-3.105-0.982-3.827v0c0.629-1.063 1.256-1.663 1.881-1.799 0.62-0.14 1.184-0.075 1.692 0.195v0c0.643 0.794 1.116 1.895 1.418 3.303 0.307 1.401 0.319 2.963 0.038 4.683-0.282 1.721-0.912 3.409-1.89 5.063zM242.934 209.474c0.687-3.054 1.164-5.619 1.432-7.694 0.271-2.08 0.057-3.327-0.642-3.74v0c-0.313-0.185-0.665-0.167-1.056 0.054-0.395 0.227-0.707 0.533-0.936 0.92v0c-0.461 0.779-0.69 1.84-0.687 3.185 0.008 1.348 0.185 2.703 0.53 4.065 0.354 1.36 0.807 2.43 1.359 3.21z"
                                          fill="black"></path>
                                        <path
                                          d="M263.408 189.391c0.161 0.082 0.475 0.257 0.942 0.524 0.467 0.268 0.736 0.63 0.807 1.086 0.066 0.447-0.039 1.084-0.317 1.91v0c-0.315 0.939-0.642 1.592-0.98 1.959-0.343 0.359-0.843 0.428-1.501 0.208v0l-7.483-4.796c-4.321-2.716-7.061-4.473-8.221-5.272v0l-1.645 0.639c-0.111 0.06-0.226 0.071-0.345 0.031v0c-0.282-0.094-0.411-0.489-0.386-1.185 0.028-0.687 0.228-1.585 0.599-2.693v0c0.336-1.002 0.839-1.579 1.51-1.73 0.666-0.16 1.456-0.136 2.368 0.073v0l1.017 0.675c-0.808-1.288-1.373-2.658-1.695-4.11-0.319-1.458-0.322-2.657-0.006-3.596v0c0.411-1.227 0.944-2.111 1.598-2.651 0.661-0.538 1.332-0.692 2.015-0.463v0c0.601 0.201 1.152 0.616 1.652 1.243 0.5 0.627 0.868 1.329 1.103 2.104 0.235 0.775 0.28 1.473 0.134 2.093v0c-0.191 0.57-0.392 0.931-0.603 1.082-0.211 0.152-0.458 0.181-0.739 0.087v0l-1.331-0.738c-0.133 2.498 0.685 5.074 2.457 7.729v0z"
                                          fill="black"></path>
                                      </g>
                                    </svg></g>
                                </svg></g>
                            </svg></g>
                        </svg></g>
                      <defs>
                        <mask></mask>
                      </defs>
                    </svg>
                    <rect width="279.72" height="279.72" fill="black" stroke="none" visibility="hidden"></rect>
                  </g>
                </mask>
              </svg>
              <rect width="279.72" height="279.72" fill="black" stroke="none" visibility="hidden"></rect>
            </g>
          </mask>
          <linearGradient x1="0.054" x2="0.941" y1="0.5" y2="0.5" id="3d00ae08-475e-4ae8-960a-2e5d9dffc267">
            <stop stop-color="#864d25" offset="0"></stop>
            <stop stop-color="#f1c4b3" offset="0.498"></stop>
            <stop stop-color="#864d25" offset="1"></stop>
          </linearGradient>
          <rect width="279.72" height="279.72" fill="url(#3d00ae08-475e-4ae8-960a-2e5d9dffc267)"
            mask="url(#81defe29-b9ff-4eb1-b916-a843a7f8f6fa)" data-fill-palette-color="accent"></rect>
        </svg>
        <rect width="279.72" height="279.72" fill="none" stroke="none" visibility="hidden"></rect>
      </g>
    </svg></g>
</svg>